<?xml version="1.0" encoding="UTF-8" standalone="no"?>
<!-- Created with Inkscape (http://www.inkscape.org/) -->

<svg
   xmlns:dc="http://purl.org/dc/elements/1.1/"
   xmlns:cc="http://creativecommons.org/ns#"
   xmlns:rdf="http://www.w3.org/1999/02/22-rdf-syntax-ns#"
   xmlns:svg="http://www.w3.org/2000/svg"
   xmlns="http://www.w3.org/2000/svg"
   xmlns:sodipodi="http://sodipodi.sourceforge.net/DTD/sodipodi-0.dtd"
   xmlns:inkscape="http://www.inkscape.org/namespaces/inkscape"
   width="119.38994"
   height="36.9893"
   id="svg2"
   version="1.1"
   inkscape:version="0.48.5 r10040"
   sodipodi:docname="retrofit2.svg"
   inkscape:export-filename="D:\yjchen\retrofit2.png"
   inkscape:export-xdpi="159.98605"
   inkscape:export-ydpi="159.98605">
  <defs
     id="defs4" />
  <sodipodi:namedview
     id="base"
     pagecolor="#ffffff"
     bordercolor="#666666"
     borderopacity="1.0"
     inkscape:pageopacity="0.0"
     inkscape:pageshadow="2"
     inkscape:zoom="2.8"
     inkscape:cx="-17.566854"
     inkscape:cy="25.795161"
     inkscape:document-units="px"
     inkscape:current-layer="layer1"
     showgrid="false"
     inkscape:window-width="1920"
     inkscape:window-height="1028"
     inkscape:window-x="-8"
     inkscape:window-y="-8"
     inkscape:window-maximized="1"
     fit-margin-top="0"
     fit-margin-left="0"
     fit-margin-right="0"
     fit-margin-bottom="0" />
  <metadata
     id="metadata7">
    <rdf:RDF>
      <cc:Work
         rdf:about="">
        <dc:format>image/svg+xml</dc:format>
        <dc:type
           rdf:resource="http://purl.org/dc/dcmitype/StillImage" />
        <dc:title></dc:title>
      </cc:Work>
    </rdf:RDF>
  </metadata>
  <g
     inkscape:label="Layer 1"
     inkscape:groupmode="layer"
     id="layer1"
     transform="translate(-108.5481,-391.34847)">
    <g
       id="g3757"
       transform="matrix(0.91310228,0,0,0.91310228,14.619936,35.614434)">
      <g
         id="g3773">
        <g
           style="font-size:32px;font-style:normal;font-variant:normal;font-weight:200;font-stretch:normal;line-height:125%;letter-spacing:0px;word-spacing:0px;fill:#000000;fill-opacity:1;stroke:none;font-family:Raleway;-inkscape-font-specification:Raleway Ultra-Light"
           id="text2989"
           transform="matrix(1.5432933,0,0,1.5432933,-188.22428,-229.01451)">
          <path
             d="m 214.73074,410.16586 c 0.38344,1.21551 0.57517,2.46323 0.5752,3.74317 -3e-5,0.0853 -3e-5,0.34131 0,0.76806 -3e-5,0.42677 -0.0319,0.92823 -0.0957,1.5044 -0.0638,0.57617 -0.18118,1.19483 -0.35206,1.85596 -0.17092,0.66113 -0.42694,1.26904 -0.76806,1.82373 -0.34117,0.55468 -0.78909,1.01334 -1.34375,1.37597 -0.55471,0.36263 -1.24807,0.54395 -2.08008,0.54395 -0.46942,0 -0.84816,-0.096 -1.13623,-0.28809 -0.2881,-0.19206 -0.51206,-0.44271 -0.67188,-0.75195 -1.93958,-3.06218 -2.97034,-5.33584 -0.73225,-1.93814 0.10675,0.27735 1.46334,1.93814 1.67657,2.09829 0.2132,0.16016 0.50112,0.24024 0.86377,0.24024 0.81053,0 1.47719,-0.24007 2,-0.72022 0.52276,-0.48014 0.93341,-1.07747 1.23193,-1.79199 0.29848,-0.71451 0.50112,-1.49316 0.60791,-2.33594 0.10675,-0.84276 0.16014,-1.63752 0.16016,-2.38427 -2e-5,-1.49283 -0.28274,-2.92203 -0.84814,-4.2876 -0.56546,-1.36555 -1.33352,-2.57095 -2.3042,-3.61621 -0.97073,-1.04523 -2.112,-1.87189 -3.42383,-2.47998 -1.31187,-0.60806 -2.70379,-0.91209 -4.17578,-0.91211 -1.4297,2e-5 -2.80584,0.27736 -4.12842,0.83203 -1.3226,0.5547 -2.49057,1.33335 -3.50391,2.33594 -1.01335,1.00262 -1.82389,2.19728 -2.43164,3.58398 -0.60775,1.38673 -0.91162,2.91212 -0.91162,4.57617 0,1.57879 0.28792,3.05616 0.86377,4.43213 0.57584,1.37598 1.3597,2.57601 2.35156,3.6001 0.99186,1.02409 2.14925,1.8348 3.47217,2.43213 1.32291,0.59733 2.74153,0.89599 4.25586,0.896 0.83202,-10e-6 1.65868,-0.096 2.47998,-0.28809 0.82127,-0.19206 1.61603,-0.50131 2.38428,-0.92774 l 0.32031,0.5752 c -1.64325,0.85351 -3.37143,1.28027 -5.18457,1.28027 -1.57879,0 -3.07211,-0.30925 -4.47998,-0.92773 -1.40788,-0.61849 -2.63982,-1.47185 -3.6958,-2.56006 -1.05599,-1.08822 -1.88802,-2.36295 -2.49609,-3.82422 -0.60808,-1.46126 -0.91212,-3.02392 -0.91211,-4.68799 -1e-5,-1.74934 0.32535,-3.36001 0.97607,-4.83203 0.65071,-1.47199 1.50944,-2.73599 2.57617,-3.79199 1.06673,-1.05597 2.29866,-1.87726 3.6958,-2.46387 1.39713,-0.58657 2.85318,-0.87986 4.36817,-0.87988 1.23696,2e-5 2.43146,0.20803 3.58349,0.62402 1.152,0.41604 2.19741,0.99205 3.13623,1.72803 0.93878,0.73602 1.76024,1.60532 2.46436,2.60791 0.70408,1.00262 1.24819,2.08009 1.63232,3.23242 z"
             id="path2997"
             inkscape:connector-curvature="0"
             sodipodi:nodetypes="cccscccsccccscccccccccssssssccccsssscscccccccc" />
        </g>
        <g
           style="font-size:32px;font-style:normal;font-variant:normal;font-weight:200;font-stretch:normal;line-height:125%;letter-spacing:0px;word-spacing:0px;fill:#000000;fill-opacity:1;stroke:none;font-family:Raleway;-inkscape-font-specification:Raleway Ultra-Light"
           id="text2985"
           transform="translate(0.11160715,-0.20089286)">
          <path
             d="m 119.67118,420.93362 0,-22.71972 9.24805,0 c 0.9173,2e-5 1.77049,0.19729 2.55957,0.59179 0.78905,0.39456 1.46629,0.91718 2.03174,1.56788 0.56541,0.65073 1.00812,1.38673 1.32812,2.208 0.31997,0.82131 0.47996,1.65871 0.47998,2.51221 -2e-5,0.87436 -0.13869,1.71697 -0.41601,2.52783 -0.27737,0.81089 -0.67206,1.53094 -1.18409,2.16016 -0.51206,0.62924 -1.12534,1.14112 -1.83984,1.53564 -0.71453,0.39454 -1.49855,0.62404 -2.35205,0.68848 l 5.75977,8.92773 -0.76758,0 -5.75977,-8.92773 -8.44824,0 0,8.92773 z m 0.63965,-9.56836 8.83203,0 c 0.8535,1e-5 1.62157,-0.1813 2.3042,-0.54394 0.6826,-0.36262 1.26382,-0.83723 1.74365,-1.42383 0.4798,-0.58657 0.8478,-1.25324 1.10401,-2 0.25616,-0.74673 0.38426,-1.51463 0.38427,-2.30371 -1e-5,-0.81053 -0.14943,-1.58917 -0.44824,-2.33594 -0.29884,-0.74672 -0.70949,-1.40818 -1.23193,-1.98437 -0.52248,-0.57615 -1.13576,-1.04018 -1.83985,-1.39209 -0.70411,-0.35187 -1.45069,-0.52781 -2.23974,-0.52783 l -8.6084,0 z"
             style="fill:#000000;stroke:#000000;stroke-width:0.40000001;stroke-miterlimit:4;stroke-opacity:1;stroke-dasharray:none"
             id="path2994"
             inkscape:connector-curvature="0" />
        </g>
      </g>
      <text
         sodipodi:linespacing="125%"
         id="text3779"
         y="421.01685"
         x="146.57808"
         style="font-size:32px;font-style:normal;font-variant:normal;font-weight:200;font-stretch:normal;text-align:start;line-height:125%;letter-spacing:0px;word-spacing:0px;writing-mode:lr-tb;text-anchor:start;fill:#000000;fill-opacity:1;stroke:#000000;stroke-width:0.30000001;stroke-miterlimit:4;stroke-opacity:1;stroke-dasharray:none;font-family:Raleway;-inkscape-font-specification:Raleway Ultra-Light"
         xml:space="preserve"><tspan
           y="421.01685"
           x="146.57808"
           id="tspan3781"
           sodipodi:role="line">etrofit</tspan></text>
    </g>
  </g>
</svg>
